<svg width="98" height="99" viewBox="0 0 98 99" fill="none" xmlns="http://www.w3.org/2000/svg">
<path d="M57.7789 2.89203L28.1042 16.8955C26.0339 17.8712 24.677 20.0119 24.677 22.3012L24.7149 58.2653C24.7149 60.5547 26.0717 62.6575 28.1421 63.6332L57.7816 77.6745C59.4006 78.4638 61.2845 78.4638 62.9035 77.6745L92.5781 63.6332C94.6485 62.6575 96.0053 60.5547 96.0053 58.2653V22.3012C96.0053 20.0119 94.6485 17.9091 92.5781 16.9333L62.9008 2.89203C61.2817 2.1055 59.3979 2.1055 57.7789 2.89203ZM60.3412 80.2666C59.1735 80.2666 58.0059 80.0044 56.9139 79.4773L27.2745 65.436C24.5257 64.1224 22.7175 61.3061 22.7175 58.2653L22.6796 22.3012C22.6796 19.2227 24.45 16.4063 27.2366 15.0927L56.9139 1.09193C59.0978 0.0783643 61.5845 0.0783643 63.7684 1.09193L93.443 15.1305C96.2296 16.4441 98 19.2605 98 22.3012V58.2653C98 61.3061 96.1918 64.1603 93.443 65.4739L63.7684 79.5152C62.6764 80.0017 61.5088 80.2666 60.3412 80.2666Z" fill="white"/>
<path d="M93.424 33.5991C93.3376 33.3153 93.1646 33.0721 93.0078 32.8153C92.7754 32.4315 92.3429 31.8504 92.0294 31.5288L91.9672 31.4666C91.9186 31.2125 91.7456 30.9882 91.5131 30.8801C91.424 30.8395 91.3266 30.8098 91.2591 30.7422C91.2023 30.6828 91.1753 30.599 91.1429 30.5233C91.0104 30.2233 90.7347 29.9962 90.4158 29.9233C90.6293 29.58 90.6023 29.1043 90.3536 28.7854C90.2915 28.707 90.1752 28.6313 90.0968 28.6962C90.0428 28.7421 90.0455 28.8232 90.0401 28.8908C90.0104 29.2557 89.6103 29.4611 89.3995 29.7611C89.1779 30.0746 89.1671 30.4909 89.0049 30.8395C88.8346 31.2098 88.5049 31.4855 88.3184 31.8477C87.7832 32.8802 88.5643 34.1721 88.1535 35.3155L86.4777 36.7723C85.202 37.8778 83.9046 39.0021 82.364 39.6914C81.2558 40.186 80.0395 40.4482 78.8935 41.1347C78.5611 39.6265 78.2638 38.0886 77.5718 36.7074C77.2475 36.0587 76.8394 35.4533 76.5826 34.7749C76.4177 34.3343 76.3204 33.8748 76.2366 33.4126C75.9393 31.772 75.8069 30.08 75.2231 28.4583C75.5312 28.3745 75.7961 28.1421 75.9177 27.8475C76.015 27.6096 76.0339 27.3231 76.2231 27.1501C76.3501 27.0366 76.5285 26.9961 76.6637 26.8934C76.8745 26.7339 76.9475 26.4231 76.8367 26.1825C77.1988 26.0636 77.7881 26.296 77.9637 26.0555C78.0097 25.8771 78.0962 25.5203 78.1421 25.3419C78.1692 25.2419 78.1962 25.1311 78.28 25.0689C78.3881 24.9852 78.5422 25.0122 78.6773 25.0392C78.826 25.0716 78.9746 25.1068 79.1233 25.1392C79.2017 25.1554 79.3287 25.1365 79.399 25.0933C79.4719 25.0446 79.5233 24.8554 79.5152 24.7662C79.4963 24.4581 79.4233 24.2311 79.4017 23.8527C79.3746 23.4607 79.2638 23.058 79.2746 22.6661C79.2854 22.3093 79.4503 21.9417 79.7341 21.7174C79.8584 21.6174 80.0909 21.5606 80.2422 21.6093C80.4369 21.6742 80.5909 21.8147 80.7612 21.9282C80.9909 22.0823 81.2477 22.1796 81.5045 22.2769C81.9667 22.4526 82.4586 22.6364 82.9478 22.5418C83.237 22.4877 83.4992 22.3391 83.7289 22.1526C84.0695 21.8742 84.3398 21.512 84.4965 21.0525C84.4046 20.7147 83.9965 20.6011 83.6695 20.4795C82.9965 20.2227 82.4505 19.7146 81.8045 19.393C80.5639 18.7767 80.5044 17.9983 80.4477 17.9118C80.3936 17.8307 80.3747 17.7334 80.3585 17.6334C79.0854 9.07077 70.1255 12.4358 69.2552 13.1305C67.174 14.7927 67.5551 15.1495 67.1172 15.3873C66.6361 15.6468 66.0442 15.5603 65.5144 15.6901C65.1063 15.7928 64.7414 16.0306 64.4252 16.3117C63.3819 17.2199 62.8494 18.547 62.5142 19.9714C61.4169 19.8578 60.4925 19.1362 59.4816 18.6956C58.1816 18.1307 56.7301 18.0388 55.3544 17.6929C54.4354 17.4631 53.5489 17.1199 52.6515 16.8144C49.7135 15.8144 46.6404 15.2116 43.5456 15.0333C43.2429 15.017 42.9321 15.0035 42.6429 15.09C42.078 15.2603 41.6915 15.7684 41.3293 16.236C38.3454 20.0984 33.9532 22.9634 31.8153 27.3826C31.6017 27.8232 31.1612 28.0934 30.8476 28.4691C30.6639 28.6881 30.5395 28.9502 30.4044 29.2016C30.1125 29.7422 29.7638 30.253 29.3638 30.7179C29.2638 30.8341 29.1557 30.9558 29.0962 31.099C29.0367 31.2423 29.034 31.4206 29.134 31.5423C29.2313 31.6612 29.4043 31.699 29.4962 31.8234C29.6422 32.0153 29.5368 32.3234 29.6989 32.4991C29.8773 32.6937 30.2611 32.5856 30.4179 32.7991C30.5368 32.964 30.4395 33.2126 30.5449 33.3856C30.6828 33.6154 31.0477 33.5478 31.2639 33.71C31.4747 33.8667 31.4936 34.2154 31.7234 34.3397C31.918 34.4451 32.1558 34.337 32.3748 34.3478C32.618 34.3586 32.8342 34.51 33.0045 34.6857C33.0937 34.7776 33.1937 34.883 33.3208 34.8695C33.4532 34.856 33.5343 34.71 33.6532 34.6478C33.7883 34.5749 33.9694 34.61 34.0857 34.51C34.1803 34.4235 34.1884 34.2722 34.2559 34.164C34.3532 33.9992 34.5722 33.9424 34.6857 33.7883C34.756 33.6937 35.1398 32.8667 35.1965 32.5964C35.3587 31.8153 34.8695 30.8368 34.5911 30.0908C34.4992 29.8422 34.4046 29.5908 34.3911 29.3259C34.3776 29.0611 35.0884 27.961 35.3803 27.6096C37.0074 25.6284 38.9319 23.9121 40.8428 22.2039C41.4726 21.6417 42.1023 21.0795 42.7348 20.5173C43.1294 20.166 43.5997 19.8551 44.1484 19.8443C44.7214 19.8308 45.289 19.9254 45.8133 20.1606C46.3377 20.3957 46.8269 20.6984 47.3594 20.912C47.8405 21.1066 48.354 21.2255 48.8567 21.3552C51.0136 21.9201 53.903 21.9634 55.0111 23.9121C56.0058 25.6636 53.9354 28.4178 53.8192 28.7719C53.5381 29.6205 53.0516 30.3855 52.5705 31.1395C52.0867 31.9018 51.6001 32.664 51.1136 33.4235C50.5731 34.2722 50.0325 35.1236 49.5676 36.0128C49.1784 36.7588 48.8405 37.5318 48.3918 38.2453C47.335 39.9157 45.7133 41.1428 44.4538 42.6672C43.8727 43.3699 43.2997 44.1159 42.5996 44.5727C42.2402 44.8079 41.9077 45.0782 41.5428 45.3052C41.1617 45.543 40.7671 45.7674 40.413 46.0431C39.6968 46.608 39.1697 47.3891 38.8265 48.2324C38.4832 49.0757 38.3156 49.9838 38.2372 50.892C38.2075 51.2488 38.1886 51.6055 38.1048 51.9542C37.9156 52.7407 37.3939 53.4381 37.4264 54.3462C37.3129 54.603 37.1047 54.7976 36.8966 54.9841C36.2912 55.5382 27.7907 65.2684 22.8796 67.9037C21.1417 68.8362 19.2713 69.5363 17.6658 70.6796C16.0333 71.8445 14.7278 73.404 13.5899 74.9149C11.7925 77.2988 9.96542 79.7909 7.36257 81.2558C7.24635 81.3207 7.11932 81.3883 6.98417 81.3693C6.80308 81.3477 6.67875 81.1882 6.52469 81.0882C6.3409 80.9693 6.11386 80.9423 5.89763 80.9153C4.25159 80.7234 2.60826 80.5341 0.95952 80.345C0.816269 80.3287 0.662206 80.3152 0.537875 80.3774C0.302727 80.499 0.270293 80.8207 0.270293 81.0882C0.26759 85.3506 0.0540646 89.5671 0.564903 93.6971C0.654098 94.4106 1.10818 95.5836 1.44333 96.2215C1.87579 97.0486 2.4569 98.2703 3.06234 98.1838C3.39209 98.1378 3.66778 97.9108 3.82995 97.6189C4.17591 96.9918 4.04618 96.281 4.05969 95.5944C4.08942 94.17 4.77595 92.8132 5.73546 91.7618C6.69497 90.7077 7.91666 89.9266 9.16537 89.2455C9.81947 88.8887 10.533 88.5103 10.8411 87.8319L8.65994 87.8075C8.64913 87.1805 9.57621 87.0642 9.97893 86.5831C10.1952 86.3237 10.2438 85.9615 10.3735 85.6453C10.579 85.1398 10.9952 84.7479 11.3979 84.3803C15.9982 80.2071 21.0498 76.5691 25.8528 73.1202C26.2798 72.9013 26.7204 72.6986 27.1853 72.5878C27.6745 72.4716 28.1853 72.4661 28.6773 72.3526C28.9692 72.2851 29.2476 72.185 29.5233 72.0715C32.5342 70.8201 34.783 68.1713 37.6886 66.8145C38.967 66.0766 40.1995 65.2603 41.3725 64.3657C42.9564 63.1575 44.37 61.7439 45.7755 60.3385C46.835 59.2789 47.9107 58.2005 48.7351 56.8193C49.6676 56.922 50.5758 57.168 51.492 57.368C57.1977 58.6248 63.2575 58.1356 68.7822 60.0465C69.2525 60.2087 69.7336 60.5222 69.7606 60.9493C69.866 62.5926 69.9255 64.236 70.1471 65.8685C70.7634 70.4255 74.6365 73.9419 75.6636 78.4232C75.8177 79.0881 75.9015 79.7828 75.7609 80.4504C75.6771 80.845 75.515 81.218 75.3636 81.591C74.7717 83.0505 74.3284 84.5722 74.0392 86.121C73.9987 86.3399 73.9635 86.575 74.0527 86.7777C74.1879 87.0778 74.55 87.1967 74.8771 87.221C75.2041 87.248 75.5204 87.3805 75.8447 87.3508C75.9231 87.3426 78.1043 87.4535 80.1098 87.6913C80.6693 87.7562 81.2315 87.8238 81.7802 87.9589C82.6667 88.1778 83.5046 88.5778 84.3965 88.767C86.2264 89.1508 88.1292 88.6211 89.8401 87.8697C90.1536 87.7319 90.4698 87.5805 90.7104 87.3372C90.951 87.094 91.1023 86.7318 91.0131 86.402C90.9185 86.0507 90.5807 85.8155 90.232 85.7128C89.8833 85.6101 89.5157 85.6128 89.1563 85.5669C88.6778 85.5047 88.213 85.3533 87.7886 85.1236C86.6967 84.5317 85.9507 83.4586 84.9452 82.7262C84.6668 82.5208 84.3587 82.3397 84.1533 82.0586C83.8776 81.6856 83.81 81.1828 83.4938 80.845C83.2235 80.5585 82.7856 80.4017 82.6721 80.0233C82.6018 79.7855 82.6775 79.4936 82.5045 79.3152C82.2721 79.0773 81.3991 79.3963 81.2234 79.3719C81.0477 79.3476 80.9072 79.2125 80.7909 79.0746C80.5747 78.8178 80.4071 78.5313 80.3396 78.3286C78.9773 74.1608 78.4827 69.7741 77.2907 65.5577C77.0232 64.609 76.7042 63.6738 76.442 62.7251C75.9393 60.9006 75.5906 59.0222 75.6123 57.1923C75.6231 56.3626 75.2285 55.1436 74.6879 54.5165C74.0041 53.7246 73.0662 53.2029 72.085 52.857C71.5039 52.6542 70.9039 52.5056 70.3498 52.2407C69.7768 51.965 69.2687 51.5731 68.7173 51.2515C68.2767 50.9947 67.8091 50.7839 67.3415 50.5785C64.063 49.1324 60.6979 47.8837 57.1275 46.9404C56.9572 46.8728 56.8356 46.7215 56.8112 46.5404C56.7274 45.9917 57.0653 45.616 57.3896 45.2701C58.5248 44.0565 59.6871 42.8699 60.8736 41.7077C61.2574 41.332 61.6439 40.959 62.071 40.6347C62.5818 40.2455 63.1548 39.9238 63.7819 39.7887C64.6954 39.5914 65.6955 39.786 66.5523 39.4076C67.2551 39.0967 67.747 38.4372 68.0578 37.7345C68.3713 37.0318 68.5281 36.275 68.7605 35.5425C68.8335 35.3073 68.9173 35.0722 69.0714 34.883C69.4444 34.4235 70.1363 34.3316 70.5525 33.8613C71.0255 34.2424 71.1526 34.8992 71.2904 35.4911C71.3823 35.8966 71.4985 36.2993 71.6283 36.6966C71.9661 37.7075 72.4256 38.6697 72.8905 39.6265C73.7797 41.4482 74.7311 43.2402 75.7501 44.9917C75.9961 45.416 76.2528 45.8377 76.5772 46.2079C76.8799 46.5566 77.2637 46.8701 77.7151 46.9458C78.08 47.0053 78.453 46.9242 78.7097 46.8026C78.8395 46.7431 78.9611 46.6755 79.0827 46.6026C80.6098 45.6863 82.1396 44.7187 83.4911 43.5429C84.156 42.9672 84.7587 42.3267 85.4074 41.732C85.9101 41.2752 86.4345 40.8455 86.9751 40.4347C87.3832 40.1238 87.7994 39.8238 88.2076 39.5103C88.9427 38.9427 89.6455 38.3318 90.3482 37.7237C90.7158 37.4048 91.0834 37.0858 91.4239 36.8074C91.7942 36.3101 92.3889 36.0263 92.7862 35.5533C93.0403 35.2506 93.1943 34.8776 93.3457 34.5127C93.4159 34.3424 93.4862 34.1694 93.4916 33.9857C93.4943 33.8559 93.4646 33.7235 93.424 33.5991ZM31.6504 33.4559C31.6693 33.1667 31.7666 32.8883 31.7639 32.5991C31.7558 32.3099 31.6017 31.9909 31.3179 31.9342C31.099 31.972 31.0531 32.2585 31.0125 32.4802C30.972 32.6991 30.7476 32.9559 30.572 32.818C30.4422 32.718 30.5017 32.5126 30.4747 32.3504C30.4341 32.1126 30.1963 31.9693 30.0125 31.8126C29.826 31.6585 29.6665 31.372 29.6881 31.3342C30.4909 29.9341 31.4207 28.6097 32.4667 27.3826C32.5829 27.2447 32.7423 27.0961 32.918 27.142C32.3558 28.4124 31.8828 29.7287 31.5071 31.0666C31.4396 31.3098 31.3801 31.5909 31.5207 31.799C31.5882 31.8963 31.7126 31.9693 31.8207 31.9261C31.918 31.8909 31.9693 31.7828 32.0099 31.6855C32.172 31.2882 32.3369 30.8909 32.4991 30.4936C32.345 31.5963 32.1531 32.6937 31.918 33.7829C31.7693 33.8721 31.6369 33.6316 31.6504 33.4559ZM34.4911 31.9504C34.6506 32.2531 34.8452 32.6234 34.6614 32.9099C34.5749 33.0451 34.4262 33.1234 34.3208 33.2424C34.1019 33.4937 34.0667 33.9343 33.7478 34.0262C33.4829 34.1019 33.2045 33.8586 32.937 33.9289C32.7937 33.964 32.6586 34.0911 32.3504 33.8559L32.5991 33.0586C32.791 33.0991 32.9883 33.0991 33.1802 33.0559C33.2397 33.0424 33.2991 33.0261 33.3451 32.9829C33.3748 32.9559 33.3964 32.9234 33.4154 32.8883C33.5045 32.7018 33.5559 32.4991 33.5937 32.2964L33.9965 30.2233C34.0397 30.826 34.2127 31.4152 34.4911 31.9504ZM41.8347 18.1496C41.2698 19.0416 40.6049 19.8687 39.8589 20.6065C39.013 21.4417 38.067 22.1688 37.2507 23.0364C36.0939 24.2689 34.283 25.2798 33.4397 26.7555C34.2262 24.4392 35.9966 22.7796 37.6399 21.1498C38.5237 20.2741 39.567 19.5659 40.3806 18.6226C40.8131 18.1199 41.1779 17.5604 41.6401 17.0874C42.105 16.6144 42.7024 16.2333 43.4267 16.0874C42.7267 16.6009 42.305 17.4091 41.8347 18.1496ZM1.40819 94.4457C1.09196 93.2403 0.989251 91.9915 0.889246 90.7482C0.816269 89.8266 0.743291 88.8995 0.805457 87.9751C0.856811 87.248 0.986548 86.5318 1.06223 85.8074C1.2244 84.2749 1.06763 82.4586 0.983845 80.9207C1.17845 80.9693 1.52712 80.9315 1.83254 80.9315C2.15688 80.9315 2.79205 81.0369 2.79476 81.1261C2.80016 81.2883 2.79205 81.3883 2.79746 81.5315C2.82719 82.4775 2.75962 83.4262 2.59204 84.3587C2.48933 84.9344 2.34879 85.502 2.23256 86.0777C1.45144 89.9374 1.77308 94.0133 3.15153 97.7C2.27311 96.8161 1.72713 95.6485 1.40819 94.4457ZM81.9072 86.6129C82.6937 86.8615 83.2965 87.1372 83.8965 87.2724C84.3992 87.3859 85.0101 87.5913 85.5101 87.6886C87.2318 88.0265 89.0022 87.5481 90.5779 86.775C90.1374 87.3318 89.4536 87.6237 88.786 87.8616C88.3076 88.0346 87.8238 88.1886 87.3237 88.2724C85.375 88.5968 83.4397 87.8021 81.5369 87.2724C79.3368 86.6642 77.0448 86.3966 74.7663 86.4939C74.7933 86.1345 74.9122 85.2885 74.9528 85.1939C76.1069 84.902 77.6259 85.2425 78.7611 85.5993C79.8963 85.9588 80.772 86.2534 81.9072 86.6129ZM71.2472 54.1543C72.5689 54.7706 73.6905 55.8085 74.4068 57.0788C75.0501 58.2221 75.1798 59.7546 75.4663 61.0331C76.4069 65.2468 77.3989 68.1173 78.253 73.3148C78.5286 75.0095 78.7665 76.8502 79.1476 78.5178C77.6448 74.6771 76.5853 70.6823 75.5312 66.6983C75.5258 68.7686 75.769 70.839 76.2528 72.8526C74.0933 68.1767 74.5176 62.5818 72.1256 58.0275C73.1338 59.4411 74.1419 60.8547 75.1474 62.2656C74.3798 59.2411 72.95 56.3842 70.9877 53.9597C71.085 54.0381 71.185 54.1192 71.285 54.1976L71.2472 54.1543ZM47.854 18.5443C47.2404 18.5956 46.5728 18.4551 46.1566 17.9983C45.8025 17.6118 45.6322 17.009 45.1376 16.8334C44.916 16.755 44.67 16.782 44.4349 16.7442C44.1997 16.709 43.9484 16.5685 43.9186 16.3333C43.8916 16.1333 44.0511 15.9468 44.2349 15.8684C44.4214 15.7928 44.6295 15.7982 44.8295 15.8117C47.8783 15.9955 50.8812 16.8577 53.4381 18.1172C52.2002 17.8307 50.8893 17.8388 49.6541 18.1361C49.054 18.2821 48.4702 18.4956 47.854 18.5443ZM49.3919 38.0616C49.9865 37.2777 50.1514 36.2506 50.6136 35.3803C50.9082 34.8316 51.3163 34.3532 51.6974 33.864C53.3435 31.7558 54.5787 29.3286 55.3139 26.7555C55.3463 28.3718 55.0219 30.1179 54.4543 31.7801C54.1678 32.6207 53.8192 33.4451 53.6732 34.3235C53.5651 34.9803 53.5732 35.6506 53.4678 36.3074C53.3624 36.9642 53.1272 37.6345 52.6326 38.0751C51.9677 38.6724 51.0001 38.7346 50.1136 38.8481C49.227 38.9616 48.2405 39.2427 47.8351 40.04C48.0567 39.2211 48.8784 38.7346 49.3919 38.0616ZM40.7266 49.1054C40.959 47.1783 42.3591 45.5836 43.9159 44.4241C42.6564 45.8566 41.8699 47.6945 41.705 49.5946C41.5401 51.4947 42.0023 53.4435 42.824 55.0301C41.6726 53.2272 40.4752 51.2298 40.7266 49.1054ZM23.0851 69.0227C23.9067 68.3957 24.7716 67.8281 25.5987 67.2091C30.2909 63.7116 33.4208 59.1816 37.8534 55.3301C38.7102 55.5625 39.8617 55.6517 40.5698 55.8436C41.4671 56.0842 42.2942 56.5896 42.9186 57.2761C42.9105 57.2734 42.9078 57.2707 42.8997 57.268C41.9888 56.9031 40.9563 56.9275 40.0644 57.3464C39.5157 57.6032 39.0075 57.9437 38.5589 58.3546C37.6183 59.2195 36.9128 60.4087 35.7398 60.9061C36.4669 60.1601 36.9885 59.2087 37.2237 58.1924C35.6966 58.714 34.4478 59.8411 33.4045 61.0736C32.3612 62.3061 31.4801 63.6711 30.4044 64.8765C28.7502 66.7334 26.6474 68.1875 24.3257 69.0822C23.4256 69.4281 22.4688 69.7092 21.7471 70.3498C22.0877 69.8201 22.5823 69.4065 23.0851 69.0227ZM17.4766 78.1773C15.2819 79.753 13.1548 81.4477 11.3493 83.4613C11.9493 82.4316 12.5493 81.4018 13.1494 80.372C13.5467 79.6936 13.9413 79.0125 14.3873 78.3638C17.428 73.9608 22.4634 71.4499 27.1799 68.6984C25.5528 69.9255 24.5932 71.8202 23.2824 73.377C21.6661 75.3041 19.5227 76.7069 17.4766 78.1773ZM40.5157 64.0792C39.4427 65.1847 38.167 66.0901 36.7642 66.7307C35.6371 67.2442 34.4235 67.5956 33.3883 68.2767C31.9234 69.2362 30.8693 70.8201 29.234 71.4445C27.9799 71.9256 26.5177 71.7769 25.3446 72.4337C27.3826 69.9092 29.8287 67.4091 33.0099 66.7766C33.964 66.5847 34.956 66.5739 35.8966 66.3118C37.8507 65.7712 39.3481 64.2387 40.7022 62.7305C42.0564 61.2223 43.4456 59.6249 45.3268 58.8681C43.2727 60.2925 42.1212 62.4142 40.5157 64.0792ZM45.6593 42.3456C47.2594 41.5699 49.1757 41.5699 50.8514 42.1618C52.5272 42.7537 53.9759 43.9051 55.0949 45.2863C55.9869 46.3863 56.1031 46.6512 56.1923 46.6404C56.2328 46.3242 55.9706 45.8322 55.8274 45.562C54.9868 44.0024 53.7894 42.4834 52.2299 41.6536C53.3137 41.9537 54.3787 42.4131 55.1922 43.1889C56.0058 43.9619 56.5382 45.089 56.4058 46.2079C56.3869 46.3593 56.3517 46.5188 56.2355 46.6188C56.2193 46.6323 56.2058 46.6404 56.1923 46.6404C56.1869 46.6918 56.1734 46.7431 56.1463 46.7837C55.4652 46.0998 54.5625 45.1646 53.8489 44.5133C51.6812 42.5348 48.5216 41.6969 45.6593 42.3456ZM62.1521 55.749C64.2684 56.1625 66.6469 57.8059 68.5227 58.8708C66.4658 58.1275 64.609 57.7816 62.4278 57.6248C57.4788 57.2626 51.2569 56.9058 46.5999 54.5354C46.7377 53.5246 47.6891 52.1164 48.6648 51.8272C49.6433 51.5353 50.7055 51.692 51.6677 52.0353C52.6299 52.3759 53.5192 52.8894 54.4354 53.3408C56.8626 54.5246 59.4979 55.2328 62.1521 55.749ZM60.452 40.8049C60.1763 41.5482 59.4789 42.032 58.9032 42.5753C58.1329 43.297 57.5221 44.1916 57.1329 45.1782C56.822 43.1402 55.3949 41.0969 53.4056 40.0833C54.5868 40.2265 55.7977 40.3346 56.9599 40.0833C57.9329 39.8752 58.933 39.4211 59.8736 39.7373C60.1628 39.8319 60.452 40.0346 60.5114 40.3319C60.5439 40.4887 60.506 40.6536 60.452 40.8049ZM60.2871 28.4691C59.906 28.9935 59.3276 29.4422 58.6789 29.4205C58.487 29.4124 58.2924 29.3638 58.1491 29.2367C57.9924 29.0989 57.9167 28.8908 57.8599 28.6881C57.641 27.8988 57.5924 27.0718 57.395 26.2798C57.1977 25.4879 56.8004 24.6878 56.095 24.277C56.9761 23.9527 57.6734 23.504 58.3438 23.0256C58.7708 22.7229 59.3006 22.3877 59.7817 22.6012C60.2628 22.8148 60.3709 23.4364 60.3871 23.9635C60.4087 24.5932 60.3925 25.2365 60.579 25.8393C60.652 26.0663 60.7493 26.2825 60.8006 26.515C60.9547 27.188 60.6979 27.9069 60.2871 28.4691ZM63.4711 23.5175C63.3305 23.9905 63.171 24.4743 62.7521 24.6608C62.1467 24.5176 61.8034 23.877 61.6574 23.2743C61.5088 22.6715 61.4682 22.0228 61.1358 21.4985C60.7736 20.9255 60.1087 20.5957 59.4384 20.4795C58.7573 20.3633 58.0464 20.4363 57.4032 20.693C56.7031 20.9714 56.095 21.4606 55.3733 21.6877C54.0516 22.1012 52.638 21.5688 51.3704 21.012C52.4407 19.7254 53.9165 18.6659 55.5841 18.5659C56.7112 18.4956 57.814 18.8686 58.8816 19.2416C59.7114 19.5335 60.5439 19.8281 61.3709 20.1281C62.3007 20.4633 63.3467 20.9255 63.6143 21.8769C63.7711 22.412 63.6278 22.9823 63.4711 23.5175ZM92.3618 32.3045C92.4591 32.4315 92.5159 32.5802 92.497 32.5694C92.324 32.4829 92.1294 32.3937 91.9375 32.4342C91.7186 32.4829 91.5726 32.6856 91.4456 32.8721C91.305 33.0856 91.1618 33.2964 91.0212 33.5127C91.1347 33.164 91.2861 32.8261 91.4699 32.5099C91.5807 32.318 91.7321 32.1153 91.951 32.0991C92.1132 32.0855 92.2645 32.1774 92.3618 32.3045ZM91.4294 31.1639C91.6321 31.2369 91.7023 31.4423 91.7645 31.4828C91.5996 31.3693 91.3456 31.3531 91.1618 31.4423C90.9888 31.5261 90.8915 31.6801 90.8023 31.8234C90.632 32.1018 90.4644 32.3775 90.2942 32.6558C90.4158 32.3423 90.5401 32.0288 90.6617 31.7153C90.7212 31.5639 90.7807 31.4125 90.9104 31.2936C91.0401 31.172 91.2537 31.1017 91.4294 31.1639ZM90.1806 29.1881C90.2833 29.4449 90.2725 29.853 90.1482 30.2179C90.4455 30.2044 90.7482 30.3692 90.8969 30.626C90.7428 30.4368 90.4482 30.4152 90.2266 30.5152C90.005 30.6179 89.8428 30.8125 89.6995 31.0098C89.5671 31.1909 89.4455 31.3774 89.3346 31.5693C89.7103 30.8098 90.0941 30.0314 90.1806 29.1881ZM75.9609 24.1284C75.8177 24.4878 75.7285 24.8797 75.4744 25.169C75.1987 25.4852 74.7501 25.623 74.3338 25.5825C73.9149 25.5392 73.5257 25.3311 73.2148 25.0527C73.0202 24.8797 72.8473 24.677 72.6932 24.65C74.55 24.8824 74.7311 24.8824 75.3501 23.9256C75.7366 23.3283 76.3664 22.8634 77.0529 22.6715C76.5691 23.0499 76.188 23.5581 75.9609 24.1284ZM79.0962 24.5176C79.0206 24.65 78.8611 24.6689 78.7584 24.5905C78.4476 24.3689 78.0529 24.2716 77.6745 24.3257C77.4556 24.3581 77.1907 24.4257 77.0394 24.2635C76.9204 24.1365 76.9475 23.9229 77.0502 23.7824C77.1556 23.6445 77.3151 23.5608 77.4691 23.4851C77.4367 23.5743 77.4016 23.6635 77.407 23.7581C77.4124 23.85 77.4583 23.9527 77.5448 23.9851C77.5989 24.0067 77.661 24.0013 77.7205 23.9959C77.9259 23.9716 78.1313 23.95 78.3367 23.9256C78.3773 23.9202 78.4178 23.9148 78.4503 23.8959C78.5043 23.8608 78.5259 23.7932 78.5422 23.731C78.6854 23.1013 78.5827 22.4012 78.9125 21.8444C78.807 22.1445 78.8584 22.4769 78.907 22.7904C78.9773 23.2283 79.0476 23.6635 79.1206 24.0986C79.1476 24.2392 79.1665 24.3905 79.0962 24.5176ZM80.4828 20.9066C81.0855 21.2471 81.7234 21.5715 82.4153 21.6174C83.1046 21.6607 83.8641 21.3525 84.1479 20.7201C84.1398 21.4066 83.5154 21.9661 82.8505 22.085C82.1856 22.2012 81.5045 21.9688 80.9017 21.6607C79.5963 20.9903 78.5124 19.9606 77.4502 18.947C78.4205 19.6578 79.4368 20.3119 80.4828 20.9066ZM76.7664 12.9656C78.334 13.7494 79.4476 15.3414 79.7476 17.0712C79.8395 17.5902 79.926 18.2145 80.4071 18.4334C80.1125 18.3902 79.8206 18.3443 79.526 18.301C79.4368 18.2875 79.3449 18.2713 79.28 18.2091C79.18 18.1172 79.1881 17.9604 79.199 17.828C79.2827 16.7388 79.0584 15.6144 78.4908 14.6819C77.9259 13.7467 77.0069 13.0196 75.9447 12.7521C76.0393 12.7007 76.4501 12.8088 76.7664 12.9656ZM77.9097 17.9307C77.1096 17.8442 76.2745 17.901 75.4474 17.955C73.2905 18.101 71.0742 18.2551 69.0714 18.9443C69.5471 18.7281 69.9174 18.4632 70.5958 18.2767C72.9797 17.6172 75.5339 17.6145 77.9097 17.9307ZM68.0416 15.2414C69.2795 13.1737 71.8391 11.9898 74.2149 12.3872C73.55 12.4196 72.6878 12.498 71.8769 12.7764C71.0688 13.0548 70.312 13.5575 69.866 14.29C69.5795 14.7603 69.4335 15.3035 69.2903 15.836C69.6606 15.2765 70.2714 14.8873 70.9336 14.7873C70.4579 15.1468 70.166 15.7063 70.0336 16.2874C69.8984 16.8685 69.9065 17.4712 69.9363 18.0659C69.8768 17.9442 69.7984 17.8334 69.6795 17.7523C69.3633 17.528 69.2525 17.1145 69.1281 16.7469C69.0038 16.3793 68.7903 15.9739 68.4092 15.8955C68.2632 15.8657 68.0902 15.8793 67.9902 15.7684C67.8605 15.6252 67.9443 15.4035 68.0416 15.2414ZM67.0037 17.1982C67.1577 16.982 67.3713 16.7766 67.3794 16.5117C67.4307 16.8712 67.6145 17.2064 67.8821 17.4496C68.0605 17.6118 68.2902 17.7523 68.347 17.9875C68.3848 18.1496 68.3335 18.3226 68.2551 18.4713C67.9956 18.9821 67.4956 19.3254 67.0172 19.6416C66.5307 18.8497 66.5172 17.8631 67.0037 17.1982ZM67.6064 20.6795C68.0551 20.5119 68.5389 20.7309 68.9957 20.8741C69.4335 21.012 69.8876 21.0876 70.3444 21.0903C70.5228 21.0931 70.7201 21.0795 70.8552 20.9633C71.1282 20.7336 71.0012 20.3038 70.9823 19.947C70.9498 19.3659 71.3039 18.7821 71.8337 18.547C72.3634 18.3091 73.0337 18.4361 73.4419 18.8497C73.5554 18.9632 73.65 19.1065 73.6527 19.2632C73.6554 19.4227 73.5338 19.5903 73.4851 19.6578C73.3311 19.6605 73.1824 19.6632 73.0283 19.6659C73.0824 19.2632 72.5526 18.9713 72.1823 19.1362C71.8121 19.2984 71.6391 19.7443 71.6418 20.1471C71.6499 20.7336 72.0121 21.3336 72.5743 21.4958C72.6797 21.5255 72.8067 21.5525 72.85 21.6498C72.9716 21.912 72.4067 21.9931 72.3445 22.2769C72.0364 22.1309 71.7931 21.8526 71.6931 21.5255C71.6634 21.4309 71.6418 21.3228 71.558 21.2687C71.4769 21.2147 71.3661 21.2363 71.2742 21.2633C70.8985 21.3823 70.5714 21.639 70.3633 21.9715C70.2768 22.1066 70.212 22.2553 70.1093 22.3769C69.812 22.7337 69.2795 22.7986 68.8335 22.6877C68.3848 22.5769 67.9875 22.3256 67.5686 22.1309C67.1496 21.9363 66.6685 21.8066 66.228 21.9499C66.8037 21.6823 67.0145 20.9039 67.6064 20.6795ZM65.8631 29.6449C65.8982 29.0638 65.9442 28.4826 65.9955 27.9042C66.0388 27.4204 66.0874 26.9258 66.2739 26.4771C66.6847 25.496 67.6659 24.896 68.6146 24.4122C69.5633 23.9283 70.5796 23.4607 71.1877 22.5877C70.912 25.1068 68.7957 25.3365 68.1497 25.969C67.9875 26.1285 66.5874 27.7015 66.6901 29.234C66.7199 29.7178 67.1226 30.2098 67.601 30.153C67.5713 30.7314 67.1983 30.999 66.8064 31.0044C66.4172 31.0071 66.0388 30.7395 65.9144 30.3719C65.8361 30.1449 65.8496 29.8908 65.8631 29.6449ZM69.893 28.5043C69.5795 29.5746 69.266 30.6422 68.9524 31.7126C68.7389 32.4369 68.52 33.1721 68.1092 33.8046C67.8686 34.1749 67.5334 34.5208 67.0983 34.6046C66.7604 34.6695 66.4063 34.5641 66.1036 34.3911C65.7063 34.164 65.3766 33.8208 65.1712 33.4126C64.8387 32.7613 64.8144 31.9964 64.8144 31.2639C64.8144 30.3557 64.8144 29.5719 65.3495 28.3772C65.1279 29.8179 64.9765 30.5584 65.4468 31.5369C65.5306 31.7099 65.6306 31.8801 65.7874 31.9909C66.2036 32.2802 66.7766 32.0045 67.1496 31.6666C68.3335 30.5909 68.8065 28.9394 69.8065 27.6934C70.0147 27.8637 69.9741 28.2313 69.893 28.5043ZM70.5579 26.2014C69.8768 26.3096 69.2011 26.4366 68.5227 26.5609C69.066 26.142 69.6173 25.7203 70.2498 25.4473C70.8796 25.1744 71.6093 25.0662 72.2553 25.2933C72.4743 25.3717 72.6824 25.4879 72.8527 25.6501C73.0013 25.7906 73.1148 25.9663 73.2365 26.1312C73.6554 26.6988 74.1716 27.188 74.7609 27.5745C74.123 27.3664 73.6338 27.142 73.1905 26.8528C72.8337 26.6204 72.4986 26.3474 72.0959 26.215C71.6012 26.0501 71.0688 26.1204 70.5579 26.2014ZM75.096 35.8641C75.0636 35.0127 75.2474 34.0667 74.7393 33.3802C74.6717 33.2883 74.5879 33.2018 74.4852 33.1505C74.2608 33.0424 73.996 33.1207 73.7608 33.2099C72.9418 33.5181 72.1553 33.9181 71.4228 34.3965C71.5418 33.7532 71.8634 33.1694 72.1013 32.5585C72.5445 31.4125 72.6851 30.1476 72.5013 28.9313C72.7067 28.8124 73.1851 28.9421 73.5635 29.0935C74.2446 29.3692 74.9906 29.726 75.2339 30.4206C75.342 30.726 75.3339 31.0585 75.3393 31.3828C75.3528 32.3829 75.3825 33.4153 75.7609 34.3397C76.9583 37.2588 77.9448 38.2399 78.5611 41.6861C78.6449 42.1537 78.7341 42.6294 78.6746 43.1024C78.6557 43.251 78.6232 43.4024 78.5286 43.5159C78.4367 43.6294 78.2692 43.697 78.134 43.6348C78.0286 43.5835 77.9692 43.47 77.9205 43.3618C77.7394 42.9402 77.634 42.4861 77.6124 42.032C77.5745 41.1888 77.7935 40.2644 77.3367 39.5535C77.0205 39.0589 76.4447 38.8021 76.0366 38.3832C75.7798 38.121 75.5906 37.794 75.4447 37.4534C75.2393 36.9534 75.1176 36.4101 75.096 35.8641ZM88.567 38.3237C87.9427 38.8697 87.1751 39.2265 86.5291 39.7481C85.5642 40.532 84.9236 41.6428 84.0533 42.5267C83.4478 43.1402 82.7262 43.6429 81.9369 43.9997C80.845 44.4916 79.5719 44.7457 78.78 45.6431C78.6422 45.7971 78.5205 45.9755 78.3421 46.0863C78.0232 46.2809 77.5935 46.2106 77.2772 46.0079C76.961 45.8052 76.7339 45.4917 76.515 45.189C76.2015 44.7565 75.8907 44.3241 75.5798 43.8916C76.6529 44.3835 77.8935 44.4241 79.0476 44.17C80.199 43.9132 81.272 43.3808 82.2748 42.7618C82.9073 42.3726 83.5289 41.9401 84.01 41.3725C84.3695 40.9536 84.6452 40.4698 85.0236 40.0698C85.8263 39.2265 86.994 38.8535 87.9454 38.1832C88.7508 37.6156 89.4509 36.8128 90.3942 36.5128C89.6914 37.002 89.213 37.7588 88.567 38.3237ZM91.2023 36.3804C91.0861 36.4534 90.9536 36.5128 90.8158 36.5155C90.678 36.5182 90.5293 36.4452 90.4779 36.3209C90.4482 36.2506 90.4509 36.175 90.432 36.1047C90.359 35.8479 90.032 35.756 89.8401 35.5614C89.6995 35.4209 89.632 35.2236 89.5698 35.0371C89.2725 34.1343 88.9779 33.2234 88.9833 32.2612C88.9752 32.2045 88.9725 32.1504 88.9833 32.0937C88.9806 32.1504 88.9833 32.2072 88.9833 32.2612C89.0076 32.4153 89.0914 32.5612 89.1968 32.6829C89.3373 32.8477 89.513 32.9829 89.6509 33.1559C89.932 33.51 90.0131 33.9694 90.0644 34.4154C90.0887 34.6154 90.1347 34.8587 90.3347 34.9235C90.4239 34.9533 90.5212 34.9344 90.6131 34.9181C91.2429 34.7965 91.8726 34.6776 92.5078 34.556C92.1997 35.2506 91.8591 35.9858 91.2023 36.3804ZM92.6997 34.0397C92.4267 34.2586 92.1186 34.4343 91.8213 34.483C92.0348 34.2857 92.2456 34.083 92.4186 33.8478C92.5889 33.61 92.7159 33.337 92.7321 33.0451C92.8673 33.2045 93.0132 33.391 92.9943 33.6018C92.9754 33.7802 92.8375 33.9235 92.6997 34.0397Z" fill="white"/>
<path d="M51.0893 56.6355C51.7299 56.695 52.3515 56.4517 52.9651 56.2652C54.6733 55.7517 56.5166 55.6922 58.2519 56.0923C56.9248 55.876 55.6301 56.5193 54.3111 56.7896C53.2218 57.0139 52.0812 56.9761 51.0893 56.6355Z" fill="white"/>
<path d="M44.7025 18.1388C45.3701 17.4847 46.3702 17.3037 47.3027 17.2847C47.9486 17.2712 48.5973 17.3172 49.2352 17.428C48.1568 17.3658 47.108 17.8037 46.1729 18.347C45.9377 18.4848 45.6945 18.6335 45.4242 18.6632C45.1512 18.6902 44.8431 18.5578 44.7025 18.1388Z" fill="white"/>
<path d="M75.6772 33.1505C75.9907 34.2668 75.6258 35.4668 75.7961 36.6128C75.8664 37.075 76.0177 37.521 76.2502 37.9237C75.9691 37.4615 75.9285 36.8966 75.9745 36.3588C76.0204 35.8209 76.1474 35.2938 76.1691 34.7533C76.1934 34.2154 76.1069 33.6478 75.6772 33.1505Z" fill="white"/>
<path d="M18.466 72.7472C17.4281 74.4554 16.3658 76.2231 16.0712 78.2016C17.3199 75.6879 19.0417 73.4121 21.1174 71.5201C20.1147 71.8553 19.1768 72.3824 18.466 72.7472Z" fill="white"/>
</svg>
